<?xml version="1.0" standalone="no"?>
<!DOCTYPE svg PUBLIC "-//W3C//DTD SVG 20010904//EN"
 "http://www.w3.org/TR/2001/REC-SVG-20010904/DTD/svg10.dtd">
<svg version="1.0" xmlns="http://www.w3.org/2000/svg"
 width="300.000000pt" height="306.000000pt" viewBox="0 0 300.000000 306.000000"
 preserveAspectRatio="xMidYMid meet">
<metadata>
Created by potrace 1.10, written by Peter Selinger 2001-2011
</metadata>
<g transform="translate(0.000000,306.000000) scale(0.050000,-0.050000)"
fill="#2c916d" stroke="none">
<path d="M5931 6099 c11 -18 6 -22 -18 -13 -18 7 -33 4 -33 -7 0 -10 14 -19
30 -19 17 0 30 -9 30 -20 0 -11 10 -20 21 -20 12 0 16 8 10 18 -6 10 0 22 14
27 15 5 6 18 -22 34 -39 20 -45 20 -32 0z"/>
<path d="M2690 6036 c-21 -56 -110 -323 -110 -330 0 -28 86 2 94 34 8 30 27
40 78 40 46 0 73 -12 88 -40 22 -41 69 -53 88 -23 6 10 -27 88 -74 175 -80
150 -142 204 -164 144z m78 -128 c20 -53 14 -68 -30 -68 -30 0 -39 9 -30 32 7
17 12 40 12 50 0 30 35 20 48 -14z"/>
<path d="M3033 5938 c-26 -249 -32 -238 117 -238 159 0 186 47 40 69 -80 12
-89 19 -81 57 30 135 22 224 -21 230 -38 5 -43 -7 -55 -118z"/>
<path d="M2384 6003 c-27 -17 -26 -26 17 -228 44 -199 119 -142 79 59 -39 199
-42 203 -96 169z"/>
<path d="M3411 5975 c-62 -296 -62 -295 -4 -295 41 0 49 12 60 95 6 52 18 129
25 170 16 89 -62 118 -81 30z"/>
<path d="M3620 5944 c0 -26 22 -43 72 -55 l73 -19 -118 -80 c-64 -45 -117 -93
-117 -108 0 -29 245 -108 274 -89 42 25 9 65 -64 77 -102 17 -101 34 9 98 186
109 189 134 23 178 -158 42 -152 42 -152 -2z"/>
<path d="M2065 5930 c-178 -77 -82 -385 105 -338 54 13 130 96 130 141 0 49
-96 33 -104 -18 -8 -57 -75 -71 -110 -23 -66 91 -12 214 74 168 39 -21 100 -8
100 22 0 14 -105 80 -124 77 -3 0 -35 -13 -71 -29z"/>
<path d="M3995 5708 c-74 -70 -135 -131 -135 -136 0 -27 72 -28 101 -1 49 44
161 -9 146 -68 -12 -45 51 -78 76 -39 9 14 17 95 17 180 0 222 -29 231 -205
64z m119 -80 c-34 -35 -73 20 -40 57 36 40 36 39 43 -4 3 -25 2 -48 -3 -53z"/>
<path d="M1608 5753 l-82 -43 72 -151 c55 -115 80 -149 107 -144 43 10 45 42
4 101 -46 65 11 81 89 25 42 -29 76 -38 111 -29 71 17 64 36 -30 78 -55 25
-74 43 -60 57 109 109 -51 189 -211 106z m152 -63 c0 -25 -72 -70 -111 -70
-21 0 -7 78 16 87 51 20 95 12 95 -17z"/>
<path d="M4349 5538 c-102 -152 -102 -145 15 -209 212 -115 386 154 187 290
-111 77 -92 84 -202 -81z m172 21 c66 -35 17 -199 -58 -199 -72 0 -88 54 -41
136 54 95 48 91 99 63z"/>
<path d="M1280 5579 c-49 -32 -99 -61 -110 -65 -19 -7 161 -294 185 -294 9 0
181 103 223 133 4 3 -4 20 -18 37 -23 27 -33 25 -91 -20 -77 -58 -100 -62
-117 -19 -8 21 11 44 58 72 39 22 70 49 70 58 0 40 -48 41 -101 1 -67 -49 -99
-54 -99 -14 0 15 31 47 70 69 47 28 66 51 58 72 -16 40 -22 39 -128 -30z"/>
<path d="M983 5363 l-48 -37 54 -85 c66 -105 54 -123 -37 -54 -95 72 -208 50
-160 -31 34 -57 197 -216 222 -216 46 0 28 46 -48 124 -88 90 -64 101 35 17
125 -108 186 -73 109 62 -69 121 -62 140 14 41 70 -91 81 -97 112 -59 15 18
-9 58 -93 150 l-113 125 -47 -37z"/>
<path d="M2937 5335 c-26 -50 -174 -279 -505 -780 l-221 -335 -166 0 c-164 0
-192 -12 -135 -60 17 -14 30 -31 30 -39 0 -14 280 -448 392 -609 l55 -77 40
85 c34 73 36 89 11 108 -40 31 -94 103 -63 85 17 -11 21 -5 11 19 -10 27 -5
32 22 21 19 -7 40 -13 45 -13 5 0 3 -11 -6 -25 -10 -17 -4 -16 19 2 26 22 40
23 63 4 22 -19 33 -15 50 18 12 22 36 41 52 41 17 0 38 20 46 44 l16 43 12
-42 c6 -27 0 -47 -18 -54 -16 -6 -25 -19 -19 -28 6 -10 -4 -48 -22 -85 -35
-70 -40 -256 -8 -259 7 -1 37 -5 69 -9 55 -7 55 -7 25 40 -47 71 -47 70 141
356 166 253 246 377 444 684 49 77 97 150 106 162 10 13 -21 80 -78 167 l-94
145 -40 -51 c-23 -27 -85 -120 -140 -206 -54 -86 -163 -256 -242 -377 -79
-121 -185 -287 -237 -368 l-95 -148 -40 66 c-45 74 -48 62 78 255 52 80 163
248 245 375 83 127 193 295 245 375 156 238 153 213 46 374 -107 160 -101 156
-134 96z m-151 -564 c-20 -28 -42 -50 -50 -50 -8 -1 -10 -14 -3 -31 6 -16 2
-30 -10 -30 -11 0 -26 -18 -33 -40 -7 -22 -22 -35 -32 -29 -22 14 49 141 109
194 54 49 61 44 19 -14z m367 -286 c-2 -19 -16 -46 -33 -59 -16 -14 -22 -25
-12 -25 29 -1 -51 -81 -81 -81 -18 0 -14 13 13 40 22 22 40 53 40 69 0 24 51
91 69 91 4 0 5 -16 4 -35z m-708 -250 c-24 -25 -43 -52 -44 -60 -1 -15 -3 -16
-46 -13 -20 1 -20 3 0 11 14 6 25 24 25 40 0 16 9 24 19 17 11 -6 31 6 45 28
13 22 29 36 34 31 5 -5 -10 -29 -33 -54z m-132 -85 c-7 -17 -1 -28 13 -25 27
6 25 -37 -10 -155 -30 -103 -26 -101 -78 -52 -25 23 -35 42 -22 42 13 0 24 8
24 18 0 10 -18 14 -40 8 -28 -7 -40 -1 -40 22 0 17 11 33 25 34 19 1 19 4 -1
12 -20 7 -20 16 -3 38 13 15 32 23 41 17 10 -6 18 -1 18 11 0 12 8 17 18 11
10 -6 23 3 29 19 7 17 17 30 25 30 7 0 7 -13 1 -30z m487 -210 c-17 -10 -31
-28 -32 -39 -2 -12 -4 -30 -5 -41 -2 -11 -12 -20 -23 -20 -34 0 -22 59 19 94
21 18 34 43 27 55 -7 11 1 9 16 -5 24 -22 23 -28 -2 -44z"/>
<path d="M4749 5365 c-111 -79 -131 -186 -51 -267 114 -113 322 -35 322 121 0
112 -181 209 -271 146z m184 -116 c20 -52 -48 -129 -112 -129 -78 0 -107 51
-70 123 43 81 152 85 182 6z"/>
<path d="M5045 5017 c-69 -55 -125 -108 -125 -117 0 -40 70 -38 114 4 62 58
88 23 60 -82 -21 -78 -10 -142 25 -142 11 0 29 36 41 81 19 68 28 79 62 68
118 -37 147 99 46 211 -89 98 -72 99 -223 -23z m184 -36 c36 -40 28 -81 -18
-81 -38 0 -77 55 -64 90 16 40 40 38 82 -9z"/>
<path d="M552 4938 c-141 -167 104 -393 257 -237 84 85 86 148 5 229 -94 94
-188 97 -262 8z m190 -44 c75 -57 52 -154 -36 -154 -61 0 -126 51 -126 99 0
73 96 106 162 55z"/>
<path d="M5325 4671 c-69 -13 -125 -19 -125 -14 0 6 -10 1 -23 -12 -32 -32 16
-90 62 -75 59 19 112 -60 83 -123 -60 -131 26 -122 121 13 48 69 95 136 105
150 60 81 -17 102 -223 61z m110 -91 c-28 -45 -46 -50 -66 -18 -15 24 24 57
66 58 20 0 20 -8 0 -40z"/>
<path d="M347 4637 c-145 -71 -89 -286 86 -330 107 -26 218 120 170 224 -33
73 -91 30 -73 -53 21 -91 -70 -116 -155 -42 -51 44 -44 102 15 124 31 12 50
35 50 60 0 44 -27 49 -93 17z"/>
<path d="M3374 4305 c-74 -118 -179 -282 -234 -365 -214 -327 -322 -505 -311
-515 6 -7 11 -2 11 9 0 12 16 27 35 33 49 17 178 93 157 93 -10 0 5 18 33 40
58 45 112 55 80 15 -11 -14 -17 -43 -13 -65 4 -22 10 -60 12 -85 3 -25 14 -45
25 -45 19 0 295 409 339 502 17 36 52 38 763 38 l745 0 67 105 c36 58 73 108
82 112 8 3 15 19 15 35 0 24 -115 28 -737 28 l-738 0 -87 140 c-108 172 -83
179 -244 -75z m177 -84 c-7 -10 3 -27 22 -38 19 -10 36 -33 39 -51 2 -18 -3
-28 -12 -22 -9 6 -30 -3 -47 -20 -23 -23 -34 -24 -45 -6 -10 16 -19 11 -28
-15 -8 -22 -27 -39 -42 -40 -15 0 -26 -11 -23 -24 2 -12 -14 -21 -35 -19 -52
3 -50 19 9 90 28 32 43 66 35 74 -8 9 -4 11 9 3 12 -7 34 1 47 17 14 17 17 31
7 31 -9 1 1 10 23 19 53 23 54 23 41 1z"/>
<path d="M785 4118 c36 -56 79 -123 95 -148 17 -26 92 -144 169 -263 122 -192
179 -272 252 -362 11 -14 15 -25 9 -25 -6 0 25 -54 70 -121 l82 -120 -90 -145
-91 -144 122 -6 c133 -7 177 3 177 37 0 12 -8 16 -18 10 -35 -21 -62 44 -51
121 25 158 23 251 -3 277 -22 23 -22 31 3 52 25 20 28 19 17 -9 -11 -28 1 -32
78 -27 l91 5 -43 70 c-43 72 -197 314 -344 540 -46 72 -117 182 -157 245 l-73
115 -180 0 -180 0 65 -102z"/>
<path d="M331 3095 c-55 -168 -103 -315 -106 -326 -18 -61 314 -22 335 39 31
91 26 98 -60 87 -44 -6 -80 -5 -80 3 0 8 36 121 80 252 44 131 80 241 80 244
0 3 -34 6 -75 6 l-75 0 -99 -305z"/>
<path d="M868 3097 c-109 -167 -205 -316 -214 -330 -12 -21 3 -27 64 -27 67 0
85 9 115 60 32 53 46 60 131 60 93 0 96 -2 96 -60 0 -57 4 -60 80 -60 l80 0 0
330 0 330 -77 0 -77 0 -198 -303z m204 -89 c-10 -26 -112 -41 -112 -17 0 7 25
54 55 105 l55 94 6 -77 c4 -43 2 -90 -4 -105z"/>
<path d="M1792 3375 c-4 -14 -49 -155 -100 -315 -51 -159 -92 -295 -92 -300 0
-6 69 -9 153 -7 l153 2 25 75 26 75 -88 -12 c-95 -13 -102 -4 -67 74 19 42 32
47 97 39 70 -10 121 44 121 127 0 4 -36 7 -80 7 -90 0 -88 -2 -60 71 19 50 27
53 101 41 76 -12 139 50 139 137 0 25 -321 11 -328 -14z"/>
<path d="M2324 3340 c-138 -125 -151 -262 -31 -312 38 -16 74 -43 80 -59 28
-72 -101 -122 -153 -59 -14 17 -31 30 -37 30 -17 0 -111 -139 -101 -148 121
-105 338 -50 417 106 69 135 45 215 -74 251 -55 17 -60 82 -8 109 26 14 49 12
78 -9 59 -41 168 83 111 126 -66 49 -210 31 -282 -35z"/>
<path d="M2782 3337 c-31 -88 -29 -91 38 -81 l61 9 -91 -256 c-102 -288 -102
-272 -7 -256 l71 11 78 248 c78 246 78 247 140 248 53 0 64 10 83 70 l21 70
-186 0 -186 0 -22 -63z"/>
<path d="M3225 3077 c-117 -357 -116 -345 -21 -327 62 12 69 21 92 115 35 151
58 156 74 19 l13 -120 84 -9 c114 -12 114 -12 63 129 l-45 125 56 35 c222 134
174 356 -76 356 l-135 -1 -105 -322z m295 137 c0 -45 -61 -114 -101 -114 -47
0 -48 19 -10 112 30 70 111 72 111 2z"/>
<path d="M3825 3076 c-57 -178 -102 -324 -100 -326 3 -2 74 1 159 6 150 8 154
10 175 69 29 84 31 82 -59 67 -68 -11 -80 -7 -80 23 1 69 34 94 119 88 57 -4
81 2 81 20 0 15 6 47 13 72 11 41 5 45 -63 45 -68 0 -74 4 -63 45 7 25 13 53
13 62 0 9 40 14 88 10 85 -7 132 39 132 129 0 8 -70 14 -155 14 l-155 -1 -105
-323z"/>
<path d="M4412 3375 c-4 -14 -49 -155 -100 -315 -51 -159 -92 -295 -92 -302 0
-10 302 0 315 11 2 2 11 34 18 71 l13 66 -84 -13 c-99 -16 -101 -43 18 281 41
113 70 209 64 215 -22 22 -145 10 -152 -14z"/>
<path d="M4894 3385 c-20 -35 -198 -616 -191 -624 33 -38 302 -10 319 34 36
94 25 111 -62 100 -44 -6 -80 -7 -80 -3 0 5 36 113 80 240 44 128 80 240 80
250 0 22 -134 24 -146 3z"/>
<path d="M5325 3083 c-234 -362 -227 -343 -136 -343 53 0 78 13 111 60 38 53
55 60 141 60 l98 0 -12 -60 c-12 -59 -10 -60 71 -60 l82 0 0 255 c0 140 6 289
13 330 l12 75 -87 0 -88 0 -205 -317z m227 65 c-7 -17 -12 -62 -12 -100 0 -62
-5 -68 -60 -68 -73 0 -74 4 -5 113 53 84 102 119 77 55z"/>
<path d="M3727 3318 c20 -12 53 -17 74 -12 20 5 41 1 47 -9 5 -10 7 -7 4 8 -3
14 -39 27 -84 30 -64 5 -72 2 -41 -17z"/>
<path d="M2060 3017 c0 -60 2 -61 36 -31 20 18 56 29 81 25 25 -5 39 -1 32 10
-6 11 -20 14 -30 8 -11 -6 -19 3 -19 20 0 20 -18 31 -50 31 -43 0 -50 -9 -50
-63z"/>
<path d="M3623 2890 c46 -78 92 -118 70 -62 -7 20 -13 43 -13 51 0 9 -22 31
-49 49 l-50 32 42 -70z"/>
<path d="M1991 2855 c3 -19 -3 -35 -13 -35 -10 0 -18 -9 -18 -20 0 -11 10 -20
22 -20 25 0 97 81 97 110 0 11 -9 4 -21 -15 -23 -41 -52 -45 -64 -10 -4 14 -6
9 -3 -10z"/>
<path d="M2525 2819 c-70 -28 -54 -39 55 -39 76 0 100 7 100 30 0 34 -82 39
-155 9z"/>
<path d="M3080 2822 c0 -13 -31 -37 -70 -53 -38 -16 -70 -37 -70 -46 0 -26
-95 -123 -121 -123 -12 0 -19 -11 -14 -25 5 -14 -4 -34 -19 -46 -16 -11 -30
-34 -33 -52 -2 -17 -20 -47 -39 -66 -19 -18 -34 -47 -34 -62 0 -18 -20 -29
-50 -29 -27 0 -50 10 -50 21 0 12 8 16 19 10 10 -6 25 -1 33 12 10 16 -2 20
-39 13 -31 -6 -53 -1 -54 12 0 12 -30 45 -68 72 -44 33 -59 55 -44 65 36 23
53 18 41 -13 -6 -15 0 -35 14 -43 14 -9 19 -7 12 4 -6 10 -2 32 9 48 16 23 22
23 30 3 8 -19 18 -20 38 -3 19 15 38 16 66 0 55 -29 77 -27 91 10 6 18 3 26
-8 19 -11 -7 -14 1 -8 19 7 17 19 31 27 31 8 0 10 29 5 63 -8 54 -13 59 -33
32 -20 -28 -122 -34 -778 -46 l-756 -15 -70 -110 c-39 -61 -76 -123 -81 -138
-9 -23 111 -26 730 -22 797 6 756 12 680 -90 -25 -33 -77 -36 -770 -34 l-744
1 -101 -153 c-56 -85 -101 -157 -101 -161 0 -4 336 -7 747 -7 792 0 780 1 816
-90 17 -45 102 -170 114 -169 7 0 61 79 119 175 58 96 173 278 254 404 231
359 315 502 302 515 -6 6 -1 24 11 39 12 15 17 33 10 40 -7 7 -13 2 -13 -12z
m-747 -288 c7 -8 5 -15 -5 -15 -10 -1 -47 -6 -83 -10 -39 -5 -65 0 -65 13 0
12 13 17 29 11 17 -6 35 -3 40 6 12 19 62 16 84 -5z m247 -334 c0 -11 -13 -20
-29 -20 -18 0 -25 -12 -18 -30 7 -19 -1 -30 -22 -30 -18 0 -28 -9 -21 -20 7
-11 5 -21 -4 -22 -9 0 -32 -4 -51 -8 -19 -3 -35 1 -35 10 0 32 63 80 87 67 12
-7 16 -6 8 3 -8 9 -5 28 8 43 26 32 77 36 77 7z m-220 -119 c6 -1 -3 -11 -20
-22 -25 -17 -23 -20 10 -18 79 7 110 -2 110 -29 0 -45 -122 -64 -151 -24 -13
17 -33 32 -44 32 -11 0 -32 16 -47 35 -22 30 -22 31 2 10 37 -33 60 -32 60 3
0 16 15 26 35 22 19 -4 40 -8 45 -9z"/>
<path d="M4584 2800 c5 -16 -3 -42 -17 -56 -20 -20 -21 -37 -6 -65 11 -22 14
-39 7 -39 -7 0 -4 -11 6 -25 81 -106 133 -224 85 -193 -27 18 -52 52 -55 75
-4 24 -16 43 -27 43 -10 0 -13 11 -5 23 10 16 4 20 -17 12 -18 -7 -43 0 -55
16 -30 35 -200 131 -200 113 0 -8 65 -115 145 -239 80 -123 194 -301 254 -394
l108 -169 170 0 c212 0 214 2 149 104 -93 149 -309 481 -384 590 -40 59 -82
125 -95 147 -32 58 -75 96 -63 57z"/>
<path d="M4051 2715 c-4 -14 -13 -50 -20 -80 -16 -73 -54 -70 -165 15 -118 90
-142 72 -63 -46 67 -100 116 -176 324 -498 l132 -204 181 0 c207 0 209 3 110
141 -38 53 -70 101 -70 106 0 4 -55 92 -123 195 -67 102 -154 233 -192 291
-69 105 -100 127 -114 80z m83 -292 c28 -28 16 -71 -16 -52 -10 6 -14 19 -9
28 6 8 -8 32 -29 51 -21 19 -34 44 -27 55 7 11 22 4 33 -17 12 -21 33 -50 48
-65z m139 -208 c39 -76 23 -91 -28 -27 -22 28 -44 46 -49 41 -5 -5 -9 3 -9 18
0 48 55 27 86 -32z"/>
<path d="M3200 2703 c0 -9 29 -60 63 -115 147 -227 232 -360 245 -383 9 -16
-66 -151 -192 -346 -113 -176 -215 -335 -227 -354 -11 -19 -65 -102 -119 -185
-181 -275 -182 -277 -154 -318 13 -17 48 -75 78 -127 62 -106 88 -116 124 -50
36 69 40 74 346 549 58 91 160 251 226 357 l120 192 175 -13 c209 -15 213 -9
97 164 -43 64 -156 235 -251 381 -171 263 -208 302 -214 225 -10 -142 -5 -190
20 -185 14 4 21 -3 14 -13 -6 -10 2 -32 19 -49 33 -34 38 -53 13 -53 -9 0 -45
45 -81 100 -36 55 -75 100 -87 100 -12 0 -16 5 -9 12 21 21 -113 128 -160 128
-26 0 -46 -7 -46 -17z m433 -356 c-7 -7 5 -26 28 -42 22 -15 38 -43 35 -62 -4
-18 4 -31 17 -29 29 6 55 -121 27 -131 -11 -3 -15 -14 -9 -24 6 -10 -12 -24
-40 -31 -28 -7 -51 -22 -51 -34 0 -11 -6 -15 -13 -8 -7 8 -24 -2 -37 -20 -37
-50 -29 27 9 94 16 28 26 74 24 102 -4 34 6 57 27 65 18 7 27 22 20 33 -7 11
-21 15 -31 9 -11 -6 -19 -3 -19 8 0 11 -5 34 -12 51 -7 19 -2 32 13 32 14 0
20 -6 12 -13z"/>
<path d="M469 1833 c-21 -15 -86 -52 -143 -82 l-104 -54 52 -84 c83 -133 175
-153 283 -62 88 73 94 114 32 218 -58 101 -63 103 -120 64z m87 -173 c-12 -62
-140 -105 -183 -62 -46 46 -33 71 63 121 80 41 133 15 120 -59z"/>
<path d="M5322 1784 c-20 -38 -13 -54 57 -131 103 -111 102 -114 -27 -78 -114
32 -172 25 -172 -22 0 -47 343 -103 374 -60 20 27 9 52 -70 154 -52 66 -104
134 -116 151 -20 25 -26 23 -46 -14z"/>
<path d="M5589 1717 c-13 -43 21 -83 61 -70 37 12 33 70 -7 92 -34 17 -43 14
-54 -22z"/>
<path d="M579 1479 c-71 -56 -132 -106 -136 -110 -4 -4 27 -50 69 -103 42 -53
79 -100 82 -104 3 -4 19 4 36 18 28 23 24 34 -33 93 -60 61 -62 70 -34 99 29
29 37 25 87 -40 43 -57 61 -68 82 -50 22 18 18 34 -23 87 -56 75 -60 91 -20
91 15 0 50 -28 77 -63 28 -35 59 -56 72 -48 37 22 24 57 -55 147 l-76 86 -128
-103z"/>
<path d="M4969 1307 c-148 -160 109 -391 263 -237 62 63 61 160 -2 160 -26 0
-41 -14 -42 -40 -4 -82 -9 -90 -58 -90 -136 0 -171 159 -40 183 22 4 43 23 46
42 11 59 -108 46 -167 -18z"/>
<path d="M5339 1329 c-34 -41 13 -100 54 -67 15 13 27 34 27 48 0 39 -54 51
-81 19z"/>
<path d="M868 1294 c-12 -13 -64 -63 -117 -111 l-96 -88 92 -92 c112 -112 189
-94 82 19 l-59 62 97 88 c81 74 93 94 73 118 -30 36 -43 36 -72 4z"/>
<path d="M4700 1065 c-1 -8 -37 -41 -80 -74 -72 -53 -105 -110 -65 -112 8 0
51 -49 95 -109 52 -70 90 -105 109 -98 43 15 200 135 200 154 2 41 -64 32
-130 -18 -59 -45 -75 -50 -90 -27 -27 42 -25 45 53 95 58 38 67 52 47 75 -20
24 -35 20 -99 -31 -66 -52 -77 -56 -89 -26 -7 19 -1 40 15 49 69 39 119 92
106 114 -16 25 -72 32 -72 8z"/>
<path d="M1142 972 c-55 -30 -100 -103 -101 -163 -2 -98 139 -192 211 -140 47
34 23 102 -26 74 -45 -25 -106 6 -106 53 0 115 155 170 180 64 14 -60 86 -69
97 -13 19 100 -150 183 -255 125z"/>
<path d="M1434 785 c-26 -41 -66 -108 -91 -148 l-44 -73 108 -62 c120 -69 144
-74 159 -35 7 17 -22 42 -77 69 -62 31 -85 52 -76 74 15 40 45 38 116 -9 32
-21 66 -34 75 -29 35 22 12 62 -54 94 -38 18 -70 42 -70 52 0 41 40 41 110 0
53 -32 78 -38 95 -21 27 27 30 24 -100 100 l-105 62 -46 -74z"/>
<path d="M4315 799 c-41 -22 -75 -45 -75 -51 0 -18 161 -288 172 -288 96 0
219 134 198 217 -35 144 -158 194 -295 122z m198 -104 c29 -56 28 -63 -9 -100
-48 -48 -73 -36 -123 64 l-39 76 44 20 c59 26 89 12 127 -60z"/>
<path d="M1690 546 c-54 -117 -65 -157 -45 -169 41 -27 48 -21 85 75 40 106
69 88 70 -43 0 -79 27 -129 69 -129 37 1 157 304 127 323 -40 25 -43 22 -88
-78 l-42 -95 -16 120 c-14 109 -34 149 -74 150 -8 0 -47 -69 -86 -154z"/>
<path d="M2040 550 c0 -17 22 -39 49 -49 l48 -19 -38 -106 c-48 -129 -48 -148
-6 -165 42 -16 55 5 88 142 25 106 28 110 83 99 131 -26 65 61 -73 96 -157 39
-151 39 -151 2z"/>
<path d="M3765 555 c-49 -61 -42 -355 8 -355 36 0 47 11 47 48 0 62 103 106
141 61 29 -36 99 -38 98 -4 -1 31 -226 275 -254 275 -11 0 -29 -11 -40 -25z
m110 -178 c-42 -27 -55 -19 -55 36 0 52 1 52 40 17 31 -28 35 -41 15 -53z"/>
<path d="M2342 374 c-13 -68 -30 -145 -36 -171 -10 -40 -5 -46 36 -40 35 5 50
22 54 62 10 80 59 68 96 -23 18 -47 48 -82 74 -89 63 -17 68 2 22 85 l-41 75
41 19 c120 52 39 173 -129 195 l-91 11 -26 -124z m189 16 c31 -23 33 -33 13
-47 -44 -28 -124 -3 -124 39 0 46 56 50 111 8z"/>
<path d="M3265 455 c-109 -52 -73 -163 60 -189 92 -19 119 -56 55 -76 -28 -9
-56 -2 -81 21 -57 51 -114 24 -74 -36 59 -90 275 -54 275 45 0 59 -71 120
-139 120 -32 0 -64 9 -71 20 -20 33 49 47 99 20 72 -38 103 -5 49 52 -48 51
-101 58 -173 23z"/>
<path d="M2721 387 c-95 -121 -22 -287 127 -287 112 0 172 60 172 173 0 158
-203 236 -299 114z m180 -28 c74 -39 32 -199 -51 -199 -42 0 -90 58 -90 110 0
86 68 129 141 89z"/>
<path d="M4111 402 c-13 -21 7 -82 26 -82 35 1 67 40 57 68 -14 35 -65 43 -83
14z"/>
<path d="M3587 229 c-16 -40 21 -78 60 -63 19 7 26 27 19 53 -13 48 -62 55
-79 10z"/>
</g>
</svg>
