<?xml version="1.0" standalone="no"?>
<!DOCTYPE svg PUBLIC "-//W3C//DTD SVG 20010904//EN"
 "http://www.w3.org/TR/2001/REC-SVG-20010904/DTD/svg10.dtd">
<svg version="1.0" xmlns="http://www.w3.org/2000/svg"
 width="1500.000000pt" height="312.000000pt" viewBox="0 0 1500.000000 312.000000"
 preserveAspectRatio="xMidYMid meet">
<metadata>
Created by potrace 1.10, written by Peter Selinger 2001-2011
</metadata>
<g transform="translate(0.000000,312.000000) scale(0.100000,-0.100000)"
fill="#2c916d" stroke="none">
<path d="M1210 3038 c-10 -24 -22 -60 -25 -80 -8 -42 3 -48 50 -26 22 10 31 9
56 -6 16 -9 34 -14 39 -11 13 8 13 42 0 50 -6 3 -19 26 -30 50 -18 39 -44 65
-65 65 -3 0 -15 -19 -25 -42z"/>
<path d="M1386 3063 c-3 -10 -6 -44 -7 -76 -2 -46 2 -60 17 -72 29 -22 81 -19
95 6 13 25 4 36 -31 41 -23 3 -25 8 -28 61 -3 48 -6 57 -22 57 -10 0 -21 -8
-24 -17z"/>
<path d="M1551 3052 c-4 -10 -11 -43 -14 -74 -4 -43 -2 -60 9 -69 21 -17 33
-1 43 57 5 27 9 54 11 59 9 34 -33 57 -49 27z"/>
<path d="M1074 3046 c-3 -9 -1 -30 5 -47 6 -18 11 -42 11 -54 0 -31 26 -63 40
-49 8 8 9 34 3 85 -7 66 -10 74 -31 77 -13 2 -24 -3 -28 -12z"/>
<path d="M1674 3036 c-3 -9 -3 -27 0 -40 5 -19 -1 -28 -29 -47 -51 -35 -44
-59 23 -77 48 -14 55 -13 69 1 18 17 18 17 -36 33 -18 6 2 30 41 50 36 18 39
60 6 73 -58 21 -68 22 -74 7z"/>
<path d="M921 3014 c-40 -33 -42 -79 -5 -123 19 -23 34 -31 58 -31 41 0 81 39
71 69 -8 26 -27 27 -43 1 -7 -11 -21 -20 -33 -20 -17 0 -20 5 -17 38 3 33 6
37 29 34 34 -3 48 26 23 45 -27 19 -49 16 -83 -13z"/>
<path d="M1826 2923 c-45 -44 -63 -70 -57 -76 7 -7 19 -7 36 1 41 19 54 14 71
-25 15 -36 16 -37 30 -19 23 31 18 186 -6 186 -4 0 -37 -30 -74 -67z"/>
<path d="M759 2963 c-15 -2 -36 -14 -48 -27 l-22 -23 26 -56 c14 -31 25 -61
25 -66 0 -6 11 -11 25 -11 24 0 25 2 19 40 -4 22 -5 40 -2 40 2 0 21 -9 43
-20 29 -15 42 -17 52 -8 19 15 11 31 -18 38 -19 5 -24 13 -26 40 -1 30 -25 63
-42 59 -3 -1 -18 -4 -32 -6z"/>
<path d="M2032 2903 c-16 -6 -82 -108 -82 -127 0 -18 64 -56 94 -56 12 0 34
12 48 28 35 36 44 76 25 105 -18 27 -67 56 -85 50z m48 -80 c0 -20 -28 -53
-46 -53 -22 0 -26 20 -10 45 19 29 56 34 56 8z"/>
<path d="M563 2859 c-19 -12 -33 -29 -33 -41 0 -20 61 -107 85 -121 18 -10 95
37 95 58 0 23 -19 28 -46 10 -33 -21 -55 -8 -24 15 28 21 18 42 -15 34 -32 -8
-42 14 -11 26 32 12 35 40 4 40 -13 0 -38 -10 -55 -21z"/>
<path d="M440 2765 c-7 -9 -9 -26 -5 -45 7 -32 -9 -42 -32 -19 -13 13 -53 -5
-53 -25 0 -12 93 -116 104 -116 15 0 56 58 56 79 0 20 3 22 12 13 17 -17 38
-15 38 4 0 16 -58 88 -91 111 -14 10 -19 10 -29 -2z"/>
<path d="M2151 2743 c-39 -47 -39 -78 -1 -114 38 -37 57 -36 108 1 35 25 42
36 42 64 0 26 -8 41 -31 60 -45 38 -81 34 -118 -11z m94 -33 c11 -18 -15 -50
-40 -50 -20 0 -25 5 -25 23 0 13 3 27 7 30 10 10 51 8 58 -3z"/>
<path d="M1340 2740 c0 -13 -117 -209 -141 -236 -11 -11 -19 -23 -19 -27 0 -4
-29 -49 -64 -101 -35 -52 -67 -104 -71 -115 -9 -28 -36 -34 -116 -26 -74 8
-84 1 -51 -34 28 -32 38 -45 78 -107 22 -32 45 -65 52 -72 6 -7 12 -17 12 -20
0 -12 58 -72 69 -72 6 0 11 8 11 19 0 24 19 39 58 47 l32 7 0 -44 0 -44 35 39
c19 21 47 57 62 80 15 22 31 43 34 46 3 3 12 16 19 30 24 46 179 277 195 290
22 18 18 47 -12 96 -33 52 -55 56 -71 11 -6 -18 -34 -67 -62 -109 -27 -42 -50
-80 -50 -85 0 -5 -11 -20 -25 -33 -14 -13 -25 -28 -25 -33 0 -5 -15 -32 -34
-60 -44 -68 -86 -146 -86 -163 0 -8 -11 -14 -24 -14 -17 0 -31 11 -46 36 -27
43 -22 83 15 123 15 15 32 36 38 48 32 54 228 346 253 376 31 37 30 45 -8 106
-30 46 -58 66 -58 41z"/>
<path d="M2328 2623 c-75 -63 -83 -72 -70 -85 9 -9 17 -9 37 0 31 14 43 -4 25
-38 -9 -16 -9 -25 1 -36 17 -20 26 -17 41 13 7 15 22 29 33 31 26 5 55 31 55
50 0 20 -59 92 -75 92 -7 0 -28 -12 -47 -27z m62 -54 c0 -10 -6 -19 -14 -19
-17 0 -28 38 -12 43 17 6 26 -2 26 -24z"/>
<path d="M251 2580 c-22 -22 -31 -41 -31 -63 0 -37 5 -45 44 -75 48 -36 88
-24 130 40 20 31 14 47 -31 90 -45 43 -75 45 -112 8z m78 -43 c26 -29 19 -57
-14 -57 -22 0 -55 23 -55 37 0 9 32 43 40 43 3 0 16 -11 29 -23z"/>
<path d="M2432 2447 c-30 -7 -58 -19 -63 -29 -10 -18 -6 -22 32 -32 30 -7 45
-34 29 -50 -5 -5 -10 -15 -10 -22 0 -16 39 -25 50 -11 113 139 103 174 -38
144z"/>
<path d="M131 2423 c-12 -10 -24 -35 -28 -55 -5 -33 -2 -41 26 -67 43 -40 76
-47 108 -21 37 29 52 60 40 87 -5 12 -16 24 -24 27 -14 6 -17 1 -27 -46 -7
-31 -23 -35 -52 -14 -19 14 -19 15 0 49 28 53 2 76 -43 40z"/>
<path d="M1577 2313 c-10 -21 -25 -51 -34 -68 -9 -16 -19 -35 -22 -42 -3 -6
-36 -56 -73 -112 -38 -55 -68 -103 -68 -107 0 -4 -7 -16 -17 -26 -22 -24 -10
-34 23 -19 19 8 30 9 38 1 5 -5 17 -10 25 -10 19 0 78 69 122 144 35 60 36 61
80 60 24 0 179 -2 343 -3 271 -3 300 -2 308 14 5 9 23 31 39 50 19 21 26 36
19 40 -6 4 -162 5 -347 4 -218 -2 -338 0 -340 7 -11 34 -53 99 -65 102 -9 2
-21 -13 -31 -35z"/>
<path d="M2899 2323 c0 -5 -1 -253 -2 -553 -1 -300 -4 -552 -7 -560 -4 -13 22
-15 195 -15 194 0 200 1 197 20 -2 11 -7 43 -10 70 l-7 50 -105 0 -105 0 0
100 c1 55 2 274 4 487 2 212 0 391 -3 397 -8 12 -156 15 -157 4z"/>
<path d="M3477 2323 c-8 -13 -17 -62 -33 -178 -8 -60 -22 -155 -30 -210 -27
-182 -32 -219 -58 -415 -14 -107 -29 -222 -34 -255 -5 -33 -7 -63 -5 -67 2 -5
37 -8 77 -8 l74 0 4 98 c6 135 10 142 103 142 92 0 95 -4 95 -135 0 -68 4 -97
13 -99 30 -10 144 -14 157 -6 11 7 12 16 3 47 -6 21 -19 83 -27 138 -9 55 -21
125 -27 155 -6 30 -15 93 -19 141 -5 47 -14 97 -19 113 -6 15 -11 46 -11 69 0
23 -7 67 -15 97 -8 30 -15 71 -15 90 0 19 -7 67 -15 105 -8 39 -15 93 -15 121
0 38 -4 53 -16 58 -23 9 -182 7 -187 -1z m120 -237 c5 -42 4 -44 -17 -39 -34
9 -47 47 -25 79 22 34 36 21 42 -40z m-9 -98 c6 -7 15 -67 21 -133 7 -66 16
-145 21 -176 18 -101 19 -99 -55 -99 -73 0 -83 8 -65 55 6 15 16 98 22 184 10
144 18 181 38 181 4 0 12 -6 18 -12z"/>
<path d="M4169 2320 c-1 -3 -1 -219 0 -480 1 -261 -2 -511 -7 -555 -5 -44 -7
-83 -3 -87 7 -8 379 -13 387 -6 10 11 -9 157 -22 162 -8 3 -51 1 -96 -5 -57
-7 -84 -7 -92 1 -15 15 -16 320 -2 321 6 1 42 2 81 3 l70 1 1 83 c2 98 -4 105
-83 90 -29 -6 -58 -8 -66 -5 -10 4 -13 38 -13 158 l1 154 106 -4 107 -3 5 28
c3 16 4 56 4 89 l-2 59 -187 1 c-104 0 -189 -2 -189 -5z"/>
<path d="M4750 2313 c-86 -57 -113 -112 -114 -237 -1 -94 7 -123 57 -221 22
-44 107 -177 118 -185 3 -3 28 -43 54 -88 45 -77 49 -89 48 -147 0 -45 -6 -70
-19 -89 -23 -32 -59 -43 -80 -25 -27 22 -55 90 -54 127 4 75 7 72 -69 72 -47
0 -72 -4 -80 -14 -26 -31 16 -212 61 -267 62 -75 246 -83 319 -13 57 54 70 94
71 212 1 92 -2 114 -22 157 -25 55 -109 194 -177 293 -24 34 -43 66 -43 71 0
5 -6 14 -14 20 -34 28 -28 181 7 203 47 30 94 -19 99 -103 l3 -54 75 3 c41 2
77 6 79 8 10 9 -20 137 -44 188 -37 78 -85 106 -181 105 -46 0 -77 -5 -94 -16z"/>
<path d="M5103 2314 c-2 -6 0 -44 4 -85 l8 -74 75 0 75 0 -2 -449 c-1 -247 -5
-461 -8 -476 -4 -17 -1 -31 6 -35 11 -8 135 -14 154 -8 7 2 9 171 7 489 l-3
486 74 -7 c87 -8 84 -12 83 99 l-1 68 -234 2 c-163 1 -235 -2 -238 -10z"/>
<path d="M5659 2322 c-10 -58 -10 -1125 -1 -1131 10 -6 151 -6 156 1 2 1 -2
107 -9 233 -8 153 -8 234 -2 243 6 7 24 12 41 10 30 -3 31 -4 37 -68 10 -104
29 -228 39 -256 6 -14 10 -54 10 -89 0 -35 5 -67 11 -70 14 -9 156 -11 165 -2
4 3 0 30 -9 59 -8 29 -25 107 -37 173 -12 66 -31 161 -41 212 -16 70 -18 97
-9 112 6 12 15 21 19 21 5 0 19 21 32 48 21 42 23 61 24 177 0 119 -2 134 -26
185 -27 57 -92 120 -124 120 -9 0 -24 4 -33 9 -22 11 -242 23 -243 13z m243
-193 c47 -55 50 -220 5 -281 -21 -28 -82 -56 -95 -43 -12 11 -9 349 3 358 18
13 59 -3 87 -34z"/>
<path d="M6202 1756 l3 -569 184 2 c102 0 187 4 191 8 3 5 4 40 2 80 -2 50 -8
73 -18 77 -7 3 -53 1 -100 -5 -62 -8 -89 -8 -97 0 -7 7 -11 69 -11 166 -1 131
1 155 14 156 8 1 48 0 88 -1 l73 -2 -3 89 -3 88 -75 1 c-41 0 -79 1 -85 2 -6
1 -10 60 -10 152 0 92 4 151 10 152 6 1 55 2 110 3 l100 0 0 84 0 84 -188 1
-187 1 2 -569z"/>
<path d="M6680 2323 c-1 -5 -2 -261 -3 -570 l-2 -563 193 0 193 0 -3 73 -3 72
-110 0 -110 0 2 110 c5 371 4 865 -1 874 -8 12 -156 15 -156 4z"/>
<path d="M7130 2323 c-1 -5 -1 -260 0 -568 l0 -560 284 -2 283 -2 7 107 c4 58
12 112 18 119 7 9 36 13 84 13 90 0 93 -3 101 -140 l6 -100 42 0 c23 0 55 -2
71 -5 46 -9 56 4 45 56 -22 96 -52 276 -72 424 -5 39 -29 203 -52 365 l-43
295 -99 0 -100 0 -7 -35 c-4 -19 -12 -78 -18 -130 -12 -108 -34 -258 -56 -375
-8 -44 -14 -96 -14 -115 0 -19 -5 -52 -11 -73 -10 -37 -21 -112 -40 -282 -11
-98 -19 -116 -44 -95 -11 9 -15 27 -14 55 4 65 0 67 -115 63 l-101 -3 1 65 c5
477 4 911 -1 920 -7 11 -155 14 -155 3z m696 -248 c-4 -14 -12 -25 -19 -22
-15 4 -21 50 -12 86 l7 26 15 -31 c10 -20 13 -42 9 -59z m7 -168 c7 -84 23
-223 33 -284 l7 -43 -67 0 c-79 0 -84 6 -62 81 9 29 16 75 16 103 1 63 22 206
33 224 17 26 35 -9 40 -81z"/>
<path d="M8397 2323 c-4 -3 -7 -260 -7 -570 0 -443 3 -563 13 -564 76 -5 241
5 279 18 71 23 119 76 143 159 18 63 20 98 19 394 -1 303 -2 329 -22 388 -12
34 -28 72 -35 82 -20 28 -84 70 -108 70 -11 0 -28 4 -37 9 -21 11 -236 23
-245 14z m232 -168 c54 -28 61 -72 61 -401 0 -236 -3 -300 -15 -335 -21 -60
-47 -81 -93 -77 -35 3 -37 4 -35 38 5 99 2 716 -4 738 -4 18 -1 29 12 39 24
17 39 16 74 -2z"/>
<path d="M8968 2313 c-6 -7 -7 -24 -4 -38 8 -33 8 -1011 0 -1052 -8 -39 -11
-39 214 -35 l172 3 0 73 c0 97 -4 100 -116 86 -48 -6 -91 -7 -95 -3 -10 10
-14 311 -5 320 4 4 40 6 81 4 l75 -2 0 91 0 92 -77 -3 -78 -4 0 155 0 155 105
0 105 0 0 84 0 85 -183 0 c-134 1 -186 -2 -194 -11z"/>
<path d="M9445 2318 c-3 -7 -4 -265 -3 -572 l3 -559 190 2 c105 1 192 5 195 9
3 4 4 38 2 76 l-4 68 -115 -3 -115 -4 3 445 c1 245 3 468 3 495 l1 50 -78 3
c-56 2 -79 -1 -82 -10z"/>
<path d="M10250 2315 c-7 -8 -18 -15 -24 -15 -18 0 -60 -49 -82 -95 -18 -37
-19 -67 -19 -455 l0 -415 25 -44 c14 -24 42 -58 63 -75 37 -29 44 -31 127 -31
84 0 90 2 126 31 70 56 85 97 87 237 l2 122 -63 3 c-86 4 -92 -2 -85 -92 8
-99 -1 -140 -32 -154 -30 -14 -54 -7 -77 22 -16 19 -18 56 -18 394 0 336 2
377 17 403 14 23 25 29 50 29 53 0 66 -31 62 -148 l-4 -97 75 0 75 0 -2 117
c-2 97 -6 125 -24 160 -28 56 -46 76 -91 99 -48 24 -169 27 -188 4z"/>
<path d="M10669 2320 c0 -3 0 -237 0 -520 1 -299 -3 -532 -8 -555 -6 -22 -7
-43 -3 -47 10 -10 372 -12 381 -2 4 5 5 43 2 84 l-6 75 -70 -4 c-38 -3 -86 -5
-105 -5 l-35 -1 -3 163 c-2 125 0 162 10 163 7 1 44 2 83 3 l69 1 -3 85 c-2
48 -8 88 -14 92 -6 4 -25 4 -42 0 -16 -4 -46 -7 -65 -7 l-35 0 0 155 0 155
105 0 105 0 0 84 0 85 -183 0 c-100 1 -182 -1 -183 -4z"/>
<path d="M11146 2321 c-11 -17 -7 -1124 3 -1130 15 -9 132 -4 141 6 5 4 5 31
0 58 -5 28 -12 147 -16 265 -11 312 -11 333 3 337 17 6 51 -65 62 -129 5 -29
17 -80 26 -113 9 -33 20 -78 24 -100 4 -22 12 -56 18 -75 24 -75 42 -147 49
-193 4 -29 13 -50 23 -55 14 -6 80 -8 131 -3 13 1 15 26 12 179 -1 97 -4 353
-5 567 l-2 390 -54 3 c-101 6 -102 5 -96 -96 3 -48 10 -192 16 -321 11 -246
10 -255 -32 -244 -21 6 -25 17 -34 93 -8 68 -31 171 -70 315 -28 105 -37 141
-44 182 -11 63 -24 73 -92 73 -32 0 -60 -4 -63 -9z m122 -372 l-5 -24 -10 25
c-12 28 -6 47 9 32 5 -5 8 -20 6 -33z m247 -350 c5 -22 3 -36 -8 -47 -14 -13
-16 -11 -22 21 -11 58 18 83 30 26z"/>
<path d="M11693 2314 c-2 -6 -3 -44 -1 -85 l3 -74 73 3 c52 1 72 -1 72 -10 1
-7 2 -226 3 -487 l2 -475 74 0 c95 -1 102 4 91 73 -11 62 -15 875 -5 891 4 7
31 8 79 4 l73 -7 5 79 c3 44 4 84 2 89 -6 14 -465 14 -471 -1z m237 -109 c0
-8 -7 -15 -15 -15 -16 0 -20 12 -8 23 11 12 23 8 23 -8z"/>
<path d="M12238 2322 c-1 -4 -2 -47 -3 -97 -6 -842 -5 -1029 3 -1034 10 -6
151 -6 156 1 2 1 -2 107 -9 233 -7 145 -8 235 -2 243 15 19 55 14 67 -8 6 -11
15 -60 21 -108 5 -48 14 -103 18 -122 5 -19 15 -81 22 -136 l13 -102 75 -5
c42 -3 80 -1 85 4 5 5 2 36 -9 76 -9 37 -19 82 -22 98 -4 31 -19 105 -47 230
-31 143 -31 141 3 175 17 18 34 44 37 58 3 15 11 40 17 56 16 43 13 182 -6
249 -27 96 -74 146 -164 171 -53 15 -252 29 -255 18z m231 -177 c87 -74 77
-274 -16 -328 -18 -10 -41 -16 -51 -13 -17 6 -18 19 -16 184 1 97 2 178 3 180
5 11 55 -3 80 -23z"/>
<path d="M12877 2298 c-85 -59 -90 -80 -100 -393 -11 -345 -5 -524 18 -589 39
-108 135 -157 255 -130 45 10 63 21 95 57 67 74 70 93 70 512 0 333 -2 375
-18 420 -40 108 -103 155 -210 155 -55 0 -69 -4 -110 -32z m150 -132 l28 -24
3 -364 c2 -246 0 -375 -8 -401 -21 -72 -89 -72 -110 1 -13 49 -13 704 0 754
10 33 31 57 52 58 4 0 20 -11 35 -24z"/>
<path d="M340 2226 c0 -7 15 -33 33 -57 19 -24 54 -75 79 -114 25 -38 55 -79
67 -89 11 -11 21 -25 21 -33 0 -7 3 -13 8 -13 4 0 22 -13 39 -29 17 -15 39
-31 48 -35 11 -4 15 -13 12 -26 -3 -11 1 -34 10 -50 l15 -30 25 36 c29 44 34
31 -77 212 -41 67 -82 137 -91 155 -10 18 -28 44 -42 60 -23 24 -33 27 -87 27
-44 0 -60 -4 -60 -14z"/>
<path d="M186 1854 c-9 -8 -16 -22 -16 -31 0 -16 -55 -185 -72 -220 -18 -36 4
-52 68 -50 86 4 125 51 56 69 -34 9 -38 21 -21 65 58 140 61 152 55 168 -7 20
-50 19 -70 -1z"/>
<path d="M823 1843 c-13 -13 -23 -34 -23 -51 0 -15 -7 -37 -15 -48 -8 -10 -15
-30 -15 -43 0 -14 -7 -32 -15 -41 -8 -9 -16 -34 -18 -56 l-2 -39 61 -3 c47 -2
66 1 78 14 21 20 5 44 -30 44 -17 0 -24 6 -24 19 0 21 22 43 42 40 36 -4 48 2
48 25 0 18 -6 25 -22 28 -17 2 -24 11 -26 31 -3 26 -1 27 38 27 33 0 42 4 52
25 17 37 -3 54 -60 52 -33 -1 -54 -9 -69 -24z"/>
<path d="M1847 1863 c-53 -5 -56 -8 -83 -113 -8 -30 -22 -70 -30 -89 -9 -19
-17 -48 -18 -65 l-1 -31 65 0 c62 0 65 1 65 25 0 18 -7 26 -25 30 -16 4 -26
14 -28 28 -3 22 -1 23 58 26 21 1 25 6 25 31 0 24 -5 31 -23 33 -17 3 -22 9
-20 25 2 17 11 23 38 25 42 4 72 29 68 56 -3 23 -15 25 -91 19z"/>
<path d="M2033 1862 c-17 -11 -43 -76 -43 -106 0 -14 -4 -28 -10 -31 -5 -3
-10 -16 -10 -28 0 -12 -7 -35 -15 -51 -8 -15 -15 -41 -15 -57 0 -29 1 -29 58
-29 46 0 63 4 76 19 20 22 14 41 -13 41 -43 0 -44 25 -6 120 20 50 35 98 33
108 -3 19 -36 27 -55 14z"/>
<path d="M2243 1858 c-5 -7 -17 -40 -27 -73 -10 -33 -22 -68 -27 -77 -5 -10
-9 -25 -9 -34 0 -9 -7 -31 -16 -50 -23 -48 -13 -64 38 -66 66 -2 82 1 95 18
17 22 5 44 -23 44 -33 0 -40 23 -20 64 9 19 16 38 16 42 0 4 9 27 21 51 27 55
23 87 -12 91 -14 2 -30 -3 -36 -10z"/>
<path d="M2529 1848 c-43 -47 -181 -270 -175 -284 10 -26 54 -17 70 15 25 47
89 50 107 4 10 -28 36 -40 57 -27 12 8 16 36 17 150 1 76 -3 145 -8 152 -15
19 -46 14 -68 -10z m9 -145 c-2 -18 -10 -29 -22 -31 -28 -6 -38 11 -20 36 22
32 46 29 42 -5z"/>
<path d="M392 1720 c-54 -81 -91 -147 -88 -156 9 -23 45 -16 74 14 46 49 85
51 96 6 6 -23 21 -29 56 -24 26 4 29 22 27 160 l-2 135 -35 3 c-35 3 -36 2
-128 -138z m93 0 c3 -6 3 -19 0 -31 -9 -28 -52 -23 -47 6 6 30 35 45 47 25z"/>
<path d="M1048 1818 c-30 -32 -38 -49 -38 -78 0 -32 4 -38 35 -53 36 -17 40
-24 29 -51 -7 -18 -54 -22 -70 -6 -15 15 -56 -18 -52 -43 4 -30 57 -44 108
-28 44 13 86 61 96 108 6 31 5 33 -46 72 -36 28 -17 56 36 56 33 0 39 3 42 24
5 30 -12 41 -62 41 -33 0 -45 -6 -78 -42z"/>
<path d="M1270 1839 c-14 -25 -6 -49 16 -49 21 0 16 -28 -22 -131 -24 -64 -26
-79 -15 -92 24 -30 54 -3 74 66 34 117 51 151 76 157 29 7 46 31 38 54 -5 13
-21 16 -81 16 -66 0 -77 -3 -86 -21z"/>
<path d="M1521 1846 c-7 -8 -20 -48 -30 -88 -10 -41 -24 -85 -31 -98 -26 -50
-30 -60 -30 -80 0 -15 7 -20 25 -20 26 0 45 25 45 60 0 31 22 20 45 -23 13
-25 27 -37 41 -37 30 0 36 23 20 71 l-14 41 38 37 c50 46 62 99 31 130 -26 26
-121 30 -140 7z m73 -52 c23 -9 20 -51 -5 -64 -30 -17 -52 -5 -43 22 6 21 23
48 29 48 2 0 10 -3 19 -6z"/>
<path d="M653 1633 c-15 -5 -18 -33 -4 -33 8 0 25 30 19 35 -2 1 -9 0 -15 -2z"/>
<path d="M1321 1520 c-13 -11 -29 -20 -37 -20 -8 0 -14 -4 -14 -8 0 -8 -207
-26 -250 -22 -8 1 -76 2 -150 4 -74 1 -170 6 -212 10 -43 5 -88 6 -102 2 -27
-7 -90 -86 -78 -98 4 -4 55 -3 112 2 58 5 189 9 292 10 189 0 238 7 238 35 0
10 11 15 35 17 19 0 41 1 48 2 6 1 13 -11 15 -26 3 -21 -1 -27 -19 -30 -13 -2
-29 -17 -40 -37 -36 -68 -18 -64 -346 -62 -164 1 -319 4 -344 7 -45 6 -46 6
-87 -46 -23 -29 -39 -56 -36 -61 2 -5 151 -6 329 -2 369 7 346 12 385 -78 11
-28 26 -49 32 -47 6 2 27 35 48 73 60 109 68 121 147 243 42 63 76 121 77 129
2 24 -16 25 -43 3z"/>
<path d="M1849 1504 c-9 -11 -23 -14 -46 -11 -41 7 -43 -9 -8 -51 14 -17 25
-33 25 -37 0 -4 28 -53 62 -110 l62 -103 63 -4 c35 -2 68 -1 73 0 15 5 12 32
-4 38 -8 3 -50 58 -92 122 -43 65 -87 129 -100 144 -20 24 -24 26 -35 12z"/>
<path d="M2090 1510 c-8 -5 -25 -10 -37 -10 -35 0 -28 -28 27 -111 27 -40 50
-78 50 -83 0 -5 11 -23 24 -40 13 -18 25 -40 27 -51 4 -17 16 -21 78 -29 102
-12 106 -3 39 86 -30 40 -67 93 -81 118 -28 49 -94 130 -105 130 -4 0 -14 -5
-22 -10z"/>
<path d="M1500 1506 c0 -8 78 -135 101 -165 27 -34 24 -65 -11 -104 -16 -19
-30 -37 -30 -41 0 -3 -17 -31 -38 -63 -161 -244 -219 -330 -229 -341 -18 -19
-16 -36 6 -56 11 -10 25 -31 31 -47 7 -16 18 -29 24 -29 7 0 30 34 51 76 48
92 40 79 145 239 47 72 94 146 104 165 26 48 32 51 101 49 33 0 66 0 73 0 18
1 15 25 -6 38 -11 6 -46 53 -80 105 -104 159 -112 167 -152 167 -19 0 -47 2
-62 6 -16 4 -28 5 -28 1z"/>
<path d="M176 1125 c-8 -8 -19 -15 -24 -15 -13 0 -62 -40 -62 -50 0 -5 14 -25
31 -45 47 -53 111 -44 154 21 14 22 14 27 -5 64 -17 33 -26 40 -49 40 -16 0
-36 -7 -45 -15z m54 -58 c0 -27 -17 -47 -41 -47 -28 0 -33 32 -7 52 31 24 48
22 48 -5z"/>
<path d="M2426 1104 c-4 -9 0 -24 9 -34 25 -28 18 -40 -22 -37 -34 2 -38 0
-38 -23 0 -23 6 -26 72 -38 40 -8 79 -12 88 -8 24 9 17 50 -15 86 -16 18 -32
42 -36 52 -7 23 -50 24 -58 2z"/>
<path d="M2552 1078 c2 -15 11 -24 26 -26 18 -3 22 1 22 22 0 21 -5 26 -26 26
-21 0 -25 -4 -22 -22z"/>
<path d="M248 972 c-27 -20 -48 -44 -48 -54 0 -10 14 -34 32 -53 48 -53 81
-43 38 12 -11 14 -17 29 -14 34 8 14 31 10 38 -6 6 -17 15 -19 35 -6 12 8 12
12 2 25 -8 10 -9 16 -3 16 6 0 14 -4 17 -10 8 -13 45 -13 45 1 0 21 -55 79
-75 78 -11 0 -41 -17 -67 -37z"/>
<path d="M2267 902 c-32 -33 -34 -64 -7 -102 44 -62 123 -61 153 2 19 40 12
60 -22 56 -18 -2 -27 -10 -29 -25 -6 -40 -62 -22 -62 19 0 10 11 23 24 28 31
11 42 30 25 41 -26 16 -55 9 -82 -19z"/>
<path d="M2440 901 c0 -10 6 -24 14 -30 12 -10 17 -8 26 9 13 25 6 40 -21 40
-12 0 -19 -7 -19 -19z"/>
<path d="M340 844 l-53 -56 39 -39 c59 -60 102 -47 52 16 l-22 28 43 39 c43
41 48 68 13 68 -11 0 -43 -25 -72 -56z"/>
<path d="M2117 763 c-48 -34 -47 -56 7 -116 l43 -49 34 16 c59 26 84 57 63 79
-8 7 -54 -13 -54 -25 0 -4 -7 -8 -15 -8 -19 0 -19 5 1 36 15 22 15 26 2 42 -8
9 -18 25 -21 35 -8 23 -16 22 -60 -10z"/>
<path d="M523 757 c-33 -18 -63 -62 -63 -92 0 -37 45 -77 84 -73 44 4 43 39
-1 50 -37 10 -42 27 -15 51 24 22 35 21 57 -3 33 -36 66 -19 44 22 -14 29 -49
58 -69 57 -8 0 -25 -5 -37 -12z"/>
<path d="M1973 668 c-24 -12 -43 -26 -43 -31 0 -4 17 -37 38 -72 41 -72 60
-79 102 -42 50 44 53 52 31 94 -35 69 -67 82 -128 51z m75 -40 c14 -14 16 -54
3 -63 -13 -8 -51 35 -51 57 0 21 30 24 48 6z"/>
<path d="M640 661 c0 -10 -11 -35 -25 -55 -34 -50 -31 -68 14 -88 69 -33 98
-19 49 23 -36 30 -32 50 6 29 14 -7 33 -10 43 -6 16 7 16 9 -7 26 -21 16 -22
20 -8 25 9 4 24 5 34 3 30 -5 29 29 0 36 -15 4 -26 11 -26 16 0 6 -18 10 -40
10 -32 0 -40 -4 -40 -19z"/>
<path d="M772 558 c-45 -89 -42 -128 6 -73 29 33 42 32 42 -6 0 -37 17 -72 32
-63 5 4 21 31 34 61 20 45 28 54 47 51 19 -3 21 -8 19 -38 -2 -19 -8 -43 -14
-53 -13 -25 -3 -47 22 -47 15 0 22 10 31 45 12 48 21 59 58 70 23 7 23 6 16
-41 -4 -27 -12 -55 -18 -62 -7 -10 -6 -18 7 -30 16 -16 19 -15 41 13 13 16 25
27 27 25 2 -3 10 -18 18 -35 23 -44 46 -40 42 8 -3 39 13 72 29 61 5 -3 9 -16
9 -30 0 -36 16 -62 50 -79 26 -14 33 -13 64 2 47 22 63 67 42 116 -24 58 -73
73 -119 37 -31 -25 -49 -25 -64 -1 -8 13 -29 20 -75 25 -34 4 -67 11 -73 15
-10 8 -71 26 -116 35 -15 3 -34 -1 -45 -9 -31 -23 -41 -18 -48 25 -3 23 -12
40 -19 40 -7 0 -27 -28 -45 -62z m560 -123 c20 -43 -32 -76 -62 -40 -11 13
-11 20 0 40 17 32 47 32 62 0z"/>
<path d="M1706 544 c-10 -26 -7 -152 4 -159 6 -4 24 8 40 25 29 31 31 32 55
16 63 -41 61 11 -3 82 -48 53 -84 67 -96 36z"/>
<path d="M1483 508 c-24 -11 -33 -61 -13 -73 5 -3 7 -19 3 -35 -7 -39 11 -60
51 -60 63 0 76 26 61 118 -6 33 -14 46 -32 53 -30 11 -42 11 -70 -3z"/>
<path d="M1880 465 c0 -24 5 -35 14 -35 21 0 29 17 22 46 -10 38 -36 30 -36
-11z"/>
<path d="M1640 391 c0 -25 19 -38 31 -20 12 19 6 33 -14 37 -11 2 -17 -3 -17
-17z"/>
</g>
</svg>
